<svg version="1.1" xmlns="http://www.w3.org/2000/svg" xmlns:xlink="http://www.w3.org/1999/xlink" width="443.000000pt" height="563.000000pt" viewBox="0,0,201.425,256"><g fill="#1e358f" fill-rule="nonzero" stroke="none" stroke-width="1" stroke-linecap="butt" stroke-linejoin="miter" stroke-miterlimit="10" stroke-dasharray="" stroke-dashoffset="0" font-family="none" font-weight="none" font-size="none" text-anchor="none" style="mix-blend-mode: normal"><g transform="translate(-7.80349,1.29184) scale(0.45471,0.45471)"><g transform="translate(0,563) scale(0.1,-0.1)"><path d="M1905,5551c-82,-38 -145,-133 -145,-217v-34h-129c-137,0 -173,-7 -186,-37c-5,-10 -9,-65 -9,-123l-2,-105l-461,-5c-435,-5 -462,-6 -482,-24l-21,-19v-1963v-1963l26,-20c27,-21 31,-21 940,-21h913l6,-48c57,-410 350,-736 751,-833c132,-33 324,-31 455,4c185,48 331,133 460,264c193,197 283,418 282,693c0,271 -95,495 -288,685c-147,144 -320,233 -523,271l-92,17l-2,1458c-3,1384 -4,1459 -21,1476c-16,16 -51,18 -410,23l-392,5l-5,117c-3,77 -9,122 -18,130c-9,9 -56,14 -157,16l-145,3v31c0,61 -23,112 -75,163c-74,75 -182,97 -270,56zM2066,5412c45,-36 55,-84 29,-145c-16,-38 -9,-77 17,-94c7,-4 83,-10 168,-13l155,-5v-195v-195h-430h-430v195v195l156,5c182,6 194,11 185,74c-2,23 -8,56 -12,74c-8,38 10,87 40,107c28,20 96,19 122,-3zM1440,4767c4,-103 8,-121 24,-133c17,-12 108,-14 543,-14c610,0 558,-10 566,112c3,40 5,91 4,113l-2,40h340h340l3,-1407l2,-1407l-47,-6c-213,-30 -394,-114 -543,-252c-170,-158 -274,-352 -310,-576l-13,-77h-868h-869l-1,458c0,251 -1,489 -1,527c-1,39 0,672 1,1408l1,1337l413,-2l412,-3zM3260,1827c4,-89 7,-101 29,-118c26,-21 44,-24 71,-9c27,14 40,64 40,152v80l43,-7c317,-50 577,-264 678,-559c16,-46 32,-111 35,-145l7,-61h-94c-112,0 -139,-12 -139,-64c0,-56 27,-70 136,-74l94,-4v-27c0,-15 -9,-63 -20,-107c-60,-234 -228,-441 -445,-545c-81,-39 -215,-79 -266,-79h-27l-4,94c-4,109 -18,136 -74,136c-51,0 -64,-27 -64,-137v-93h-32c-50,0 -151,27 -228,59c-240,103 -421,314 -486,569c-35,139 -38,132 55,132c87,0 137,13 151,40c15,27 12,45 -9,71c-17,22 -29,25 -118,29l-98,5l2,39c7,114 85,297 171,405c123,153 300,265 484,305c105,24 102,26 108,-87z"></path><path d="M1203,4340c-44,-18 -56,-77 -23,-110c20,-20 33,-20 753,-20c698,0 735,1 750,18c18,19 22,68 9,89c-4,6 -20,17 -35,22c-35,14 -1421,14 -1454,1z"></path><path d="M845,3930c-26,-29 -24,-79 4,-102c22,-17 68,-18 1081,-18c1055,0 1057,0 1084,21c32,25 35,70 6,99c-20,20 -33,20 -1088,20c-1058,0 -1069,0 -1087,-20z"></path><path d="M853,3542c-32,-20 -32,-94 0,-114c7,-4 494,-8 1084,-8h1072l15,22c9,12 16,32 16,43c0,11 -7,31 -16,43l-15,22h-1072c-590,0 -1077,-4 -1084,-8z"></path><path d="M849,3142c-28,-23 -30,-73 -4,-102c18,-20 29,-20 1087,-20c1055,0 1068,0 1088,20c29,29 26,74 -6,99c-27,21 -29,21 -1084,21c-1013,0 -1059,-1 -1081,-18z"></path><path d="M845,2740c-23,-25 -24,-76 -1,-98c16,-16 92,-17 1087,-17h1071l19,24c25,30 24,66 -1,91c-20,20 -33,20 -1088,20c-1058,0 -1069,0 -1087,-20z"></path><path d="M864,2360c-12,-5 -25,-13 -29,-19c-13,-22 -8,-71 10,-91c18,-20 31,-20 1087,-20c1055,0 1068,0 1088,20c29,29 26,74 -6,99c-27,21 -29,21 -1078,20c-578,0 -1061,-4 -1072,-9z"></path><path d="M845,1950c-26,-29 -24,-79 4,-102c22,-17 60,-18 785,-18c853,0 806,-4 806,69c0,76 56,71 -807,71c-759,0 -770,0 -788,-20z"></path><path d="M853,1562c-32,-20 -32,-94 0,-114c7,-4 294,-8 638,-8c594,0 627,1 642,18c22,25 21,75 -1,95c-17,15 -76,17 -643,17c-343,0 -629,-4 -636,-8z"></path><path d="M3275,1515c-25,-24 -25,-26 -25,-212v-188l-80,-80c-87,-86 -99,-116 -60,-155c40,-40 67,-28 178,83l102,102v218c0,204 -1,218 -20,237c-27,27 -66,25 -95,-5z"></path></g></g></g></svg>